<?xml version="1.0" encoding="utf-8"?>
<!-- Generator: Adobe Illustrator 23.0.1, SVG Export Plug-In . SVG Version: 6.00 Build 0)  -->
<svg version="1.1" id="Layer_1" xmlns="http://www.w3.org/2000/svg" xmlns:xlink="http://www.w3.org/1999/xlink" x="0px" y="0px"
	 viewBox="0 0 549.18 529.22" style="enable-background:new 0 0 549.18 529.22;" xml:space="preserve">
<style type="text/css">
	.st0{fill:#F2634B;}
	.st1{fill:#FFFFFF;}
</style>
<path class="st0" d="M549.18,450c0,39.21-31.79,71-71,71h-379c-39.21,0-71-31.79-71-71V71c0-39.21,31.79-71,71-71h379
	c39.21,0,71,31.79,71,71V450z"/>
<g>
	<path class="st1" d="M114.8,478.52c-49.29-39.59-77.33-90.61-84.12-153.05L0,43.43l123.27-13.41l30.69,282.13
		c3.12,28.66,15.86,52,38.22,70c22.36,18.02,47.83,25.46,76.44,22.35c28.6-3.11,51.89-15.84,69.86-38.2
		c17.97-22.36,25.4-47.82,22.29-76.44c-3.11-28.6-15.86-51.88-38.22-69.85c-22.36-17.97-47.84-25.4-76.45-22.28l-61.61,6.7
		L170.98,80.17l61.81-6.72c62.54-6.8,118.47,9.62,167.83,49.25c49.36,39.64,77.43,90.69,84.23,153.16
		c6.8,62.49-9.63,118.39-49.25,167.7c-39.62,49.32-90.67,77.37-153.13,84.16C219.99,534.52,164.09,518.13,114.8,478.52z"/>
</g>
</svg>
